# xmcd
#
# Track frame offsets:
#  152
#  25884
#  48660
#  71768
#  92731
#  110417
#  133362
#  151213
#  171537
#  194398
#  216427
#  233242
#
# Disc length: 3315 seconds
#
# Revision: 0
# Processed by: cddbd v1.5.1PL2 Copyright (c) Steve Scherf et al.
# Submitted via: Collectorz.com_Music_Collector 6.9
#
DISCID=b60cf10c
DTITLE=Bishop Joe Simon - Time To Change
DYEAR=2006
DGENRE=Gospel
TTITLE0=Time To Change
TTITLE1=Lay My Burden Down
TTITLE2=It's On World Order It's Strong
TTITLE3=I Will Never Forget
TTITLE4=There's A God Somewhere
TTITLE5=I'm Not Making This Up
TTITLE6=Number 23
TTITLE7=Certainly Lord I Love Everybody
TTITLE8=Glad You Came My Way
TTITLE9=Time To Change (Remix)
TTITLE10=There's A God Somewhere (Remix)
TTITLE11=Number 23 (Remix)
EXTD=
EXTT0=
EXTT1=
EXTT2=
EXTT3=
EXTT4=
EXTT5=
EXTT6=
EXTT7=
EXTT8=
EXTT9=
EXTT10=
EXTT11=
PLAYORDER=
